<?xml version="1.0" standalone="no"?>
<!DOCTYPE svg PUBLIC "-//W3C//DTD SVG 20010904//EN"
 "http://www.w3.org/TR/2001/REC-SVG-20010904/DTD/svg10.dtd">
<svg version="1.0" xmlns="http://www.w3.org/2000/svg"
 width="512.000000pt" height="512.000000pt" viewBox="0 0 512.000000 512.000000"
 preserveAspectRatio="xMidYMid meet">
<metadata>
Created by potrace 1.14, written by Peter Selinger 2001-2017
</metadata>
<g transform="translate(0.000000,512.000000) scale(0.100000,-0.100000)"
fill="#000000" stroke="none">
<path d="M4998 4156 c-21 -7 -613 -340 -1317 -740 -704 -399 -1284 -726 -1289
-726 -5 0 -62 110 -127 245 -130 269 -159 309 -255 353 -72 34 -173 35 -244 3
-28 -12 -436 -241 -908 -508 l-858 -487 0 -344 0 -345 49 6 c27 3 71 17 98 30
26 14 394 221 816 461 423 240 771 436 773 436 3 0 58 -109 123 -243 129 -265
162 -311 259 -358 69 -33 188 -33 257 1 28 14 656 369 1398 790 l1347 765 0
337 0 338 -42 0 c-24 -1 -60 -7 -80 -14z"/>
</g>
</svg>
